<mxfile host="app.diagrams.net" modified="2023-02-28T08:36:05.511Z" agent="5.0 (Windows NT 10.0; Win64; x64) AppleWebKit/537.36 (KHTML, like Gecko) Chrome/109.0.0.0 Safari/537.36 OPR/95.0.0.0" etag="ypErEDTe2rU2dnX4XK-O" version="20.8.23" type="github">
  <diagram name="Страница 1" id="s1O34VC9j3Pxhvvpn_9F">
    <mxGraphModel dx="1009" dy="542" grid="1" gridSize="10" guides="1" tooltips="1" connect="1" arrows="1" fold="1" page="1" pageScale="1" pageWidth="827" pageHeight="1169" math="0" shadow="0">
      <root>
        <mxCell id="0" />
        <mxCell id="1" parent="0" />
        <mxCell id="ZZ_uZVyHVlF2GgiP1RTW-5" style="edgeStyle=orthogonalEdgeStyle;rounded=0;orthogonalLoop=1;jettySize=auto;html=1;entryX=0.5;entryY=0;entryDx=0;entryDy=0;" edge="1" parent="1" source="-oCu7SD0hpqlAKcRBWqc-26" target="-oCu7SD0hpqlAKcRBWqc-29">
          <mxGeometry relative="1" as="geometry" />
        </mxCell>
        <mxCell id="ZZ_uZVyHVlF2GgiP1RTW-6" style="edgeStyle=orthogonalEdgeStyle;rounded=0;orthogonalLoop=1;jettySize=auto;html=1;entryX=0.5;entryY=0;entryDx=0;entryDy=0;" edge="1" parent="1" source="-oCu7SD0hpqlAKcRBWqc-26" target="-oCu7SD0hpqlAKcRBWqc-30">
          <mxGeometry relative="1" as="geometry">
            <Array as="points">
              <mxPoint x="410" y="460" />
            </Array>
          </mxGeometry>
        </mxCell>
        <mxCell id="-oCu7SD0hpqlAKcRBWqc-26" value="Театр" style="shape=umlActor;verticalLabelPosition=bottom;verticalAlign=top;html=1;outlineConnect=0;fillColor=none;" parent="1" vertex="1">
          <mxGeometry x="460" y="430" width="30" height="60" as="geometry" />
        </mxCell>
        <mxCell id="ZZ_uZVyHVlF2GgiP1RTW-13" style="edgeStyle=orthogonalEdgeStyle;rounded=0;orthogonalLoop=1;jettySize=auto;html=1;exitX=0.5;exitY=1;exitDx=0;exitDy=0;entryX=1;entryY=0;entryDx=0;entryDy=0;endArrow=none;endFill=0;" edge="1" parent="1" source="-oCu7SD0hpqlAKcRBWqc-29" target="-oCu7SD0hpqlAKcRBWqc-39">
          <mxGeometry relative="1" as="geometry" />
        </mxCell>
        <mxCell id="-oCu7SD0hpqlAKcRBWqc-29" value="Добавление спектаклей" style="ellipse;whiteSpace=wrap;html=1;fillColor=none;" parent="1" vertex="1">
          <mxGeometry x="532" y="545" width="86" height="60" as="geometry" />
        </mxCell>
        <mxCell id="ZZ_uZVyHVlF2GgiP1RTW-14" style="edgeStyle=orthogonalEdgeStyle;rounded=0;orthogonalLoop=1;jettySize=auto;html=1;entryX=0;entryY=0;entryDx=0;entryDy=0;endArrow=none;endFill=0;" edge="1" parent="1" source="-oCu7SD0hpqlAKcRBWqc-30" target="-oCu7SD0hpqlAKcRBWqc-39">
          <mxGeometry relative="1" as="geometry" />
        </mxCell>
        <mxCell id="-oCu7SD0hpqlAKcRBWqc-30" value="Редактирование расписания&amp;nbsp;" style="ellipse;whiteSpace=wrap;html=1;fillColor=none;" parent="1" vertex="1">
          <mxGeometry x="360" y="540" width="100" height="70" as="geometry" />
        </mxCell>
        <mxCell id="ZZ_uZVyHVlF2GgiP1RTW-7" style="edgeStyle=orthogonalEdgeStyle;rounded=0;orthogonalLoop=1;jettySize=auto;html=1;exitX=1;exitY=0.5;exitDx=0;exitDy=0;entryX=0;entryY=0.5;entryDx=0;entryDy=0;endArrow=none;endFill=0;" edge="1" parent="1" source="-oCu7SD0hpqlAKcRBWqc-36" target="ZZ_uZVyHVlF2GgiP1RTW-3">
          <mxGeometry relative="1" as="geometry" />
        </mxCell>
        <mxCell id="-oCu7SD0hpqlAKcRBWqc-36" value="Вход" style="ellipse;whiteSpace=wrap;html=1;fillColor=none;" parent="1" vertex="1">
          <mxGeometry x="320" y="725" width="86" height="60" as="geometry" />
        </mxCell>
        <mxCell id="ZZ_uZVyHVlF2GgiP1RTW-9" style="edgeStyle=orthogonalEdgeStyle;rounded=0;orthogonalLoop=1;jettySize=auto;html=1;entryX=0;entryY=0.5;entryDx=0;entryDy=0;endArrow=none;endFill=0;" edge="1" parent="1" source="-oCu7SD0hpqlAKcRBWqc-37" target="ZZ_uZVyHVlF2GgiP1RTW-4">
          <mxGeometry relative="1" as="geometry" />
        </mxCell>
        <mxCell id="-oCu7SD0hpqlAKcRBWqc-37" value="Регистрация" style="ellipse;whiteSpace=wrap;html=1;fillColor=none;" parent="1" vertex="1">
          <mxGeometry x="320" y="815" width="86" height="60" as="geometry" />
        </mxCell>
        <mxCell id="-oCu7SD0hpqlAKcRBWqc-38" value="Покупка билетов" style="ellipse;whiteSpace=wrap;html=1;fillColor=none;" parent="1" vertex="1">
          <mxGeometry x="590" y="650" width="86" height="60" as="geometry" />
        </mxCell>
        <mxCell id="ZZ_uZVyHVlF2GgiP1RTW-12" style="edgeStyle=orthogonalEdgeStyle;rounded=0;orthogonalLoop=1;jettySize=auto;html=1;endArrow=none;endFill=0;" edge="1" parent="1" source="-oCu7SD0hpqlAKcRBWqc-39" target="-oCu7SD0hpqlAKcRBWqc-38">
          <mxGeometry relative="1" as="geometry" />
        </mxCell>
        <mxCell id="-oCu7SD0hpqlAKcRBWqc-39" value="Просмотр расписания" style="ellipse;whiteSpace=wrap;html=1;fillColor=none;" parent="1" vertex="1">
          <mxGeometry x="446" y="650" width="86" height="60" as="geometry" />
        </mxCell>
        <mxCell id="ZZ_uZVyHVlF2GgiP1RTW-2" style="edgeStyle=orthogonalEdgeStyle;rounded=0;orthogonalLoop=1;jettySize=auto;html=1;entryX=0;entryY=0.5;entryDx=0;entryDy=0;" edge="1" parent="1" source="-oCu7SD0hpqlAKcRBWqc-40" target="ZZ_uZVyHVlF2GgiP1RTW-1">
          <mxGeometry relative="1" as="geometry" />
        </mxCell>
        <mxCell id="-oCu7SD0hpqlAKcRBWqc-40" value="Пользователь" style="shape=umlActor;verticalLabelPosition=bottom;verticalAlign=top;html=1;outlineConnect=0;fillColor=none;" parent="1" vertex="1">
          <mxGeometry x="60" y="725" width="30" height="60" as="geometry" />
        </mxCell>
        <mxCell id="ZZ_uZVyHVlF2GgiP1RTW-15" value="&amp;lt;&amp;lt;include&amp;gt;&amp;gt;" style="edgeStyle=orthogonalEdgeStyle;rounded=0;orthogonalLoop=1;jettySize=auto;html=1;entryX=0;entryY=0.5;entryDx=0;entryDy=0;endArrow=classic;endFill=1;dashed=1;" edge="1" parent="1" source="ZZ_uZVyHVlF2GgiP1RTW-1" target="-oCu7SD0hpqlAKcRBWqc-36">
          <mxGeometry x="-0.9048" y="-45" relative="1" as="geometry">
            <mxPoint as="offset" />
          </mxGeometry>
        </mxCell>
        <mxCell id="ZZ_uZVyHVlF2GgiP1RTW-16" style="edgeStyle=orthogonalEdgeStyle;rounded=0;orthogonalLoop=1;jettySize=auto;html=1;entryX=0;entryY=0.5;entryDx=0;entryDy=0;dashed=1;endArrow=classic;endFill=1;" edge="1" parent="1" source="ZZ_uZVyHVlF2GgiP1RTW-1" target="-oCu7SD0hpqlAKcRBWqc-37">
          <mxGeometry relative="1" as="geometry" />
        </mxCell>
        <mxCell id="ZZ_uZVyHVlF2GgiP1RTW-1" value="Сайт" style="ellipse;whiteSpace=wrap;html=1;fillColor=none;" vertex="1" parent="1">
          <mxGeometry x="150" y="725" width="86" height="60" as="geometry" />
        </mxCell>
        <mxCell id="ZZ_uZVyHVlF2GgiP1RTW-11" style="edgeStyle=orthogonalEdgeStyle;rounded=0;orthogonalLoop=1;jettySize=auto;html=1;endArrow=none;endFill=0;" edge="1" parent="1" source="ZZ_uZVyHVlF2GgiP1RTW-3" target="-oCu7SD0hpqlAKcRBWqc-39">
          <mxGeometry relative="1" as="geometry" />
        </mxCell>
        <mxCell id="ZZ_uZVyHVlF2GgiP1RTW-3" value="Комментирование" style="ellipse;whiteSpace=wrap;html=1;fillColor=none;" vertex="1" parent="1">
          <mxGeometry x="431" y="725" width="116" height="60" as="geometry" />
        </mxCell>
        <mxCell id="ZZ_uZVyHVlF2GgiP1RTW-8" style="edgeStyle=orthogonalEdgeStyle;rounded=0;orthogonalLoop=1;jettySize=auto;html=1;entryX=0.5;entryY=1;entryDx=0;entryDy=0;endArrow=none;endFill=0;" edge="1" parent="1" source="ZZ_uZVyHVlF2GgiP1RTW-4" target="ZZ_uZVyHVlF2GgiP1RTW-3">
          <mxGeometry relative="1" as="geometry" />
        </mxCell>
        <mxCell id="ZZ_uZVyHVlF2GgiP1RTW-18" style="edgeStyle=orthogonalEdgeStyle;rounded=0;orthogonalLoop=1;jettySize=auto;html=1;entryX=0.5;entryY=1;entryDx=0;entryDy=0;endArrow=none;endFill=0;" edge="1" parent="1" source="ZZ_uZVyHVlF2GgiP1RTW-4" target="-oCu7SD0hpqlAKcRBWqc-38">
          <mxGeometry relative="1" as="geometry" />
        </mxCell>
        <mxCell id="ZZ_uZVyHVlF2GgiP1RTW-4" value="Сохранение информации о пользователях" style="ellipse;whiteSpace=wrap;html=1;fillColor=none;" vertex="1" parent="1">
          <mxGeometry x="432" y="810" width="114" height="70" as="geometry" />
        </mxCell>
      </root>
    </mxGraphModel>
  </diagram>
</mxfile>
